<svg
  width="64px"
  height="64px"
  viewBox="0 0 24 24"
  fill="none"
  xmlns="http://www.w3.org/2000/svg"
>
  <g id="SVGRepo_bgCarrier" stroke-width="0"></g>
  <g
    id="SVGRepo_tracerCarrier"
    stroke-linecap="round"
    stroke-linejoin="round"
  ></g>
  <g id="SVGRepo_iconCarrier">
    <path
      fill-rule="evenodd"
      clip-rule="evenodd"
      d="M2 5.5C2 4.67157 2.67157 4 3.5 4H20.5C21.3284 4 22 4.67157 22 5.5V18.5C22 19.3284 21.3284 20 20.5 20H3.5C2.67157 20 2 19.3284 2 18.5V5.5ZM5.82842 6C5.29787 6 4.82214 6.31607 4.60299 6.80902L4 8.13807V12.5C4 13.3284 4.67157 14 5.5 14H10.5C11.3284 14 12 13.3284 12 12.5V8.13807L11.397 6.80902C11.1779 6.31607 10.7021 6 10.1716 6H5.82842ZM4.99357 17.6675C5.45895 17.2341 6.0993 17 6.75 17H9.75C10.4007 17 11.041 17.2341 11.5064 17.6675C11.6193 17.7742 11.7675 18 11.5 18H5C4.7325 18 4.88073 17.7742 4.99357 17.6675ZM14.9936 17.6675C15.459 17.2341 16.0993 17 16.75 17H19.75C20.4007 17 21.041 17.2341 21.5064 17.6675C21.6193 17.7742 21.7675 18 21.5 18H15C14.7325 18 14.8807 17.7742 14.9936 17.6675ZM18.1716 6C17.6411 6 17.1653 6.31607 16.9462 6.80902L16.3431 8.13807V12.5C16.3431 13.3284 17.0147 14 17.8431 14H22.8431C23.6715 14 24.3431 13.3284 24.3431 12.5V8.13807L23.74 6.80902C23.5208 6.31607 23.0451 6 22.5145 6H18.1716ZM20.4936 17.6675C20.959 17.2341 21.5993 17 22.25 17H25.25C25.9007 17 26.541 17.2341 27.0064 17.6675C27.1193 17.7742 27.2675 18 27 18H20.5C20.2325 18 20.3807 17.7742 20.4936 17.6675Z"
      fill="#000000"
    ></path>
  </g>
</svg>
